<mxfile host="app.diagrams.net" agent="Mozilla/5.0 (X11; Linux x86_64; rv:138.0) Gecko/20100101 Firefox/138.0" version="27.0.9">
  <diagram name="Page-1" id="eA6vmbURIXxnvVn_YIwM">
    <mxGraphModel dx="1741" dy="908" grid="1" gridSize="10" guides="1" tooltips="1" connect="1" arrows="1" fold="1" page="1" pageScale="1" pageWidth="2339" pageHeight="3300" math="0" shadow="0">
      <root>
        <mxCell id="0" />
        <mxCell id="1" parent="0" />
        <mxCell id="S7DDol8Fuw8rWnjDtF2z-19" value="&lt;span style=&quot;color: rgb(0, 127, 255);&quot;&gt;&amp;lt;&amp;lt;Class&amp;gt;&amp;gt;&lt;/span&gt;&lt;div&gt;EqualInstructionWatermarker&lt;/div&gt;" style="swimlane;fontStyle=1;align=center;verticalAlign=top;childLayout=stackLayout;horizontal=1;startSize=40;horizontalStack=0;resizeParent=1;resizeParentMax=0;resizeLast=0;collapsible=1;marginBottom=0;whiteSpace=wrap;html=1;fontFamily=JetBrains Mono;fontSource=https%3A%2F%2Ffonts.googleapis.com%2Fcss%3Ffamily%3DJetBrains%2BMono;rounded=1;swimlaneFillColor=#F2F2F2;swimlaneLine=1;fillColor=#ffe6cc;strokeColor=#d79b00;strokeWidth=2;perimeterSpacing=0;glass=0;shadow=1;" parent="1" vertex="1">
          <mxGeometry x="1575.02" y="738" width="240" height="70" as="geometry">
            <mxRectangle x="530" y="920" width="110" height="30" as="alternateBounds" />
          </mxGeometry>
        </mxCell>
        <mxCell id="S7DDol8Fuw8rWnjDtF2z-20" value="&lt;div align=&quot;center&quot;&gt;&lt;b&gt;&lt;font style=&quot;font-size: 14px;&quot;&gt;...&lt;/font&gt;&lt;/b&gt;&lt;/div&gt;" style="text;strokeColor=none;fillColor=none;align=center;verticalAlign=top;spacingLeft=4;spacingRight=4;overflow=hidden;rotatable=0;points=[[0,0.5],[1,0.5]];portConstraint=eastwest;whiteSpace=wrap;html=1;fontFamily=JetBrains Mono;fontSource=https%3A%2F%2Ffonts.googleapis.com%2Fcss%3Ffamily%3DJetBrains%2BMono;rounded=1;swimlaneLine=1;" parent="S7DDol8Fuw8rWnjDtF2z-19" vertex="1">
          <mxGeometry y="40" width="240" height="30" as="geometry" />
        </mxCell>
        <mxCell id="S7DDol8Fuw8rWnjDtF2z-13" style="rounded=1;orthogonalLoop=1;jettySize=auto;html=1;edgeStyle=elbowEdgeStyle;elbow=vertical;jumpStyle=none;endArrow=classicThin;endFill=1;startArrow=diamond;startFill=0;strokeWidth=2;sourcePerimeterSpacing=0;curved=0;" parent="1" source="S7DDol8Fuw8rWnjDtF2z-9" edge="1">
          <mxGeometry relative="1" as="geometry">
            <mxPoint x="1380.02" y="468.0013793103453" as="sourcePoint" />
            <mxPoint x="1480.02" y="468" as="targetPoint" />
            <Array as="points">
              <mxPoint x="1480.02" y="468" />
            </Array>
          </mxGeometry>
        </mxCell>
        <mxCell id="S7DDol8Fuw8rWnjDtF2z-9" value="&lt;span style=&quot;color: rgb(0, 153, 0);&quot;&gt;&amp;lt;&amp;lt;Class&amp;gt;&amp;gt;&lt;/span&gt;&lt;div&gt;WatermarkService&lt;/div&gt;" style="swimlane;fontStyle=1;align=center;verticalAlign=top;childLayout=stackLayout;horizontal=1;startSize=40;horizontalStack=0;resizeParent=1;resizeParentMax=0;resizeLast=0;collapsible=1;marginBottom=0;whiteSpace=wrap;html=1;fontFamily=JetBrains Mono;fontSource=https%3A%2F%2Ffonts.googleapis.com%2Fcss%3Ffamily%3DJetBrains%2BMono;rounded=1;fillColor=#F2F2F2;swimlaneFillColor=#F2F2F2;swimlaneLine=1;strokeColor=#7B8691;" parent="1" vertex="1">
          <mxGeometry x="950.88" y="438" width="450" height="280" as="geometry">
            <mxRectangle x="530" y="920" width="110" height="30" as="alternateBounds" />
          </mxGeometry>
        </mxCell>
        <mxCell id="S7DDol8Fuw8rWnjDtF2z-16" value="-&amp;gt; _section : TextSection" style="text;strokeColor=none;fillColor=none;align=left;verticalAlign=top;spacingLeft=4;spacingRight=4;overflow=hidden;rotatable=0;points=[[0,0.5],[1,0.5]];portConstraint=eastwest;whiteSpace=wrap;html=1;fontFamily=JetBrains Mono;fontSource=https%3A%2F%2Ffonts.googleapis.com%2Fcss%3Ffamily%3DJetBrains%2BMono;rounded=1;swimlaneLine=1;" parent="S7DDol8Fuw8rWnjDtF2z-9" vertex="1">
          <mxGeometry y="40" width="450" height="30" as="geometry" />
        </mxCell>
        <mxCell id="S7DDol8Fuw8rWnjDtF2z-27" value="-&amp;gt; _strategy : Watermarker" style="text;strokeColor=none;fillColor=none;align=left;verticalAlign=top;spacingLeft=4;spacingRight=4;overflow=hidden;rotatable=0;points=[[0,0.5],[1,0.5]];portConstraint=eastwest;whiteSpace=wrap;html=1;fontFamily=JetBrains Mono;fontSource=https%3A%2F%2Ffonts.googleapis.com%2Fcss%3Ffamily%3DJetBrains%2BMono;rounded=1;swimlaneLine=1;" parent="S7DDol8Fuw8rWnjDtF2z-9" vertex="1">
          <mxGeometry y="70" width="450" height="30" as="geometry" />
        </mxCell>
        <mxCell id="S7DDol8Fuw8rWnjDtF2z-10" value="&lt;span style=&quot;font-size:125%;line-height:1em&quot;&gt;&lt;span style=&quot;color: rgb(0, 204, 0);&quot;&gt;⦿&lt;/span&gt;&lt;/span&gt; __init__(filepath: str, &lt;span style=&quot;color: light-dark(rgb(119, 118, 123), rgb(237, 237, 237));&quot;&gt;strategy: Watermarker&lt;/span&gt;)" style="text;strokeColor=none;fillColor=none;align=left;verticalAlign=top;spacingLeft=4;spacingRight=4;overflow=hidden;rotatable=0;points=[[0,0.5],[1,0.5]];portConstraint=eastwest;whiteSpace=wrap;html=1;fontFamily=JetBrains Mono;fontSource=https%3A%2F%2Ffonts.googleapis.com%2Fcss%3Ffamily%3DJetBrains%2BMono;rounded=1;swimlaneLine=1;" parent="S7DDol8Fuw8rWnjDtF2z-9" vertex="1">
          <mxGeometry y="100" width="450" height="30" as="geometry" />
        </mxCell>
        <mxCell id="b0s_4tn9fbrKWreqpeW8-1" value="&lt;span style=&quot;font-size:125%;line-height:1em&quot;&gt;&lt;span style=&quot;color: rgb(0, 204, 0);&quot;&gt;⦿&lt;/span&gt;&lt;/span&gt; &lt;span style=&quot;white-space: pre-wrap&quot;&gt;set_strategy(strategy: Watermarker)&lt;/span&gt;" style="text;strokeColor=none;fillColor=none;align=left;verticalAlign=top;spacingLeft=4;spacingRight=4;overflow=hidden;rotatable=0;points=[[0,0.5],[1,0.5]];portConstraint=eastwest;whiteSpace=wrap;html=1;fontFamily=JetBrains Mono;fontSource=https%3A%2F%2Ffonts.googleapis.com%2Fcss%3Ffamily%3DJetBrains%2BMono;rounded=1;swimlaneLine=1;" parent="S7DDol8Fuw8rWnjDtF2z-9" vertex="1">
          <mxGeometry y="130" width="450" height="30" as="geometry" />
        </mxCell>
        <mxCell id="b0s_4tn9fbrKWreqpeW8-2" value="&lt;span style=&quot;font-size:125%;line-height:1em&quot;&gt;&lt;span style=&quot;color: rgb(0, 204, 0);&quot;&gt;⦿&lt;/span&gt;&lt;/span&gt; &lt;span style=&quot;white-space: pre-wrap&quot;&gt;set_file(filepath: str)&lt;/span&gt;" style="text;strokeColor=none;fillColor=none;align=left;verticalAlign=top;spacingLeft=4;spacingRight=4;overflow=hidden;rotatable=0;points=[[0,0.5],[1,0.5]];portConstraint=eastwest;whiteSpace=wrap;html=1;fontFamily=JetBrains Mono;fontSource=https%3A%2F%2Ffonts.googleapis.com%2Fcss%3Ffamily%3DJetBrains%2BMono;rounded=1;swimlaneLine=1;" parent="S7DDol8Fuw8rWnjDtF2z-9" vertex="1">
          <mxGeometry y="160" width="450" height="30" as="geometry" />
        </mxCell>
        <mxCell id="S7DDol8Fuw8rWnjDtF2z-15" value="&lt;span style=&quot;font-size:125%;line-height:1em&quot;&gt;&lt;span style=&quot;color: rgb(0, 204, 0);&quot;&gt;⦿&lt;/span&gt;&lt;/span&gt; get_capacity(strategy: Watermarker) -&amp;gt; int" style="text;strokeColor=none;fillColor=none;align=left;verticalAlign=top;spacingLeft=4;spacingRight=4;overflow=hidden;rotatable=0;points=[[0,0.5],[1,0.5]];portConstraint=eastwest;whiteSpace=wrap;html=1;fontFamily=JetBrains Mono;fontSource=https%3A%2F%2Ffonts.googleapis.com%2Fcss%3Ffamily%3DJetBrains%2BMono;rounded=1;swimlaneLine=1;" parent="S7DDol8Fuw8rWnjDtF2z-9" vertex="1">
          <mxGeometry y="190" width="450" height="30" as="geometry" />
        </mxCell>
        <mxCell id="S7DDol8Fuw8rWnjDtF2z-11" value="&lt;span style=&quot;font-size:125%;line-height:1em&quot;&gt;&lt;span style=&quot;color: rgb(0, 204, 0);&quot;&gt;⦿&lt;/span&gt;&lt;/span&gt; encode(message: bytes, strategy: Watermarker, dst) -&amp;gt; str" style="text;align=left;verticalAlign=top;spacingLeft=4;spacingRight=4;overflow=hidden;rotatable=0;points=[[0,0.5],[1,0.5]];portConstraint=eastwest;whiteSpace=wrap;html=1;fontFamily=JetBrains Mono;fontSource=https%3A%2F%2Ffonts.googleapis.com%2Fcss%3Ffamily%3DJetBrains%2BMono;rounded=1;swimlaneLine=1;" parent="S7DDol8Fuw8rWnjDtF2z-9" vertex="1">
          <mxGeometry y="220" width="450" height="30" as="geometry" />
        </mxCell>
        <mxCell id="S7DDol8Fuw8rWnjDtF2z-12" value="&lt;span style=&quot;font-size:125%;line-height:1em&quot;&gt;&lt;span style=&quot;color: rgb(0, 204, 0);&quot;&gt;⦿&lt;/span&gt;&lt;/span&gt; decode(strategy: Watermarker) -&amp;gt; bytes" style="text;align=left;verticalAlign=top;spacingLeft=4;spacingRight=4;overflow=hidden;rotatable=0;points=[[0,0.5],[1,0.5]];portConstraint=eastwest;whiteSpace=wrap;html=1;fontFamily=JetBrains Mono;fontSource=https%3A%2F%2Ffonts.googleapis.com%2Fcss%3Ffamily%3DJetBrains%2BMono;rounded=1;swimlaneLine=1;" parent="S7DDol8Fuw8rWnjDtF2z-9" vertex="1">
          <mxGeometry y="250" width="450" height="30" as="geometry" />
        </mxCell>
        <mxCell id="S7DDol8Fuw8rWnjDtF2z-17" value="&lt;span style=&quot;color: rgb(0, 127, 255);&quot;&gt;&amp;lt;&amp;lt;Class&amp;gt;&amp;gt;&lt;/span&gt;&lt;div&gt;EqualInstructionWatermarker&lt;/div&gt;" style="swimlane;fontStyle=1;align=center;verticalAlign=top;childLayout=stackLayout;horizontal=1;startSize=40;horizontalStack=0;resizeParent=1;resizeParentMax=0;resizeLast=0;collapsible=1;marginBottom=0;whiteSpace=wrap;html=1;fontFamily=JetBrains Mono;fontSource=https%3A%2F%2Ffonts.googleapis.com%2Fcss%3Ffamily%3DJetBrains%2BMono;rounded=1;swimlaneFillColor=#F2F2F2;swimlaneLine=1;fillColor=#ffe6cc;strokeColor=#d79b00;strokeWidth=2;perimeterSpacing=0;glass=0;shadow=1;" parent="1" vertex="1">
          <mxGeometry x="1565.02" y="728" width="240" height="70" as="geometry">
            <mxRectangle x="530" y="920" width="110" height="30" as="alternateBounds" />
          </mxGeometry>
        </mxCell>
        <mxCell id="S7DDol8Fuw8rWnjDtF2z-18" value="&lt;div align=&quot;center&quot;&gt;&lt;b&gt;&lt;font style=&quot;font-size: 14px;&quot;&gt;...&lt;/font&gt;&lt;/b&gt;&lt;/div&gt;" style="text;strokeColor=none;fillColor=none;align=center;verticalAlign=top;spacingLeft=4;spacingRight=4;overflow=hidden;rotatable=0;points=[[0,0.5],[1,0.5]];portConstraint=eastwest;whiteSpace=wrap;html=1;fontFamily=JetBrains Mono;fontSource=https%3A%2F%2Ffonts.googleapis.com%2Fcss%3Ffamily%3DJetBrains%2BMono;rounded=1;swimlaneLine=1;" parent="S7DDol8Fuw8rWnjDtF2z-17" vertex="1">
          <mxGeometry y="40" width="240" height="30" as="geometry" />
        </mxCell>
        <mxCell id="S7DDol8Fuw8rWnjDtF2z-21" value="" style="edgeStyle=orthogonalEdgeStyle;rounded=0;orthogonalLoop=1;jettySize=auto;html=1;strokeWidth=2;dashed=1;endArrow=block;endFill=0;" parent="1" source="S7DDol8Fuw8rWnjDtF2z-6" target="S7DDol8Fuw8rWnjDtF2z-1" edge="1">
          <mxGeometry relative="1" as="geometry">
            <Array as="points">
              <mxPoint x="1675.02" y="628" />
              <mxPoint x="1675.02" y="628" />
            </Array>
          </mxGeometry>
        </mxCell>
        <mxCell id="S7DDol8Fuw8rWnjDtF2z-6" value="&lt;span style=&quot;color: rgb(0, 127, 255);&quot;&gt;&amp;lt;&amp;lt;Class&amp;gt;&amp;gt;&lt;/span&gt;&lt;div&gt;EqualInstructionWatermarker&lt;/div&gt;" style="swimlane;fontStyle=1;align=center;verticalAlign=top;childLayout=stackLayout;horizontal=1;startSize=40;horizontalStack=0;resizeParent=1;resizeParentMax=0;resizeLast=0;collapsible=1;marginBottom=0;whiteSpace=wrap;html=1;fontFamily=JetBrains Mono;fontSource=https%3A%2F%2Ffonts.googleapis.com%2Fcss%3Ffamily%3DJetBrains%2BMono;rounded=1;swimlaneFillColor=#F2F2F2;swimlaneLine=1;fillColor=#ffe6cc;strokeColor=#d79b00;strokeWidth=2;perimeterSpacing=0;glass=0;shadow=1;" parent="1" vertex="1">
          <mxGeometry x="1555.02" y="718" width="240" height="70" as="geometry">
            <mxRectangle x="530" y="920" width="110" height="30" as="alternateBounds" />
          </mxGeometry>
        </mxCell>
        <mxCell id="S7DDol8Fuw8rWnjDtF2z-8" value="&lt;div align=&quot;center&quot;&gt;&lt;b&gt;&lt;font style=&quot;font-size: 14px;&quot;&gt;...&lt;/font&gt;&lt;/b&gt;&lt;/div&gt;" style="text;strokeColor=none;fillColor=none;align=center;verticalAlign=top;spacingLeft=4;spacingRight=4;overflow=hidden;rotatable=0;points=[[0,0.5],[1,0.5]];portConstraint=eastwest;whiteSpace=wrap;html=1;fontFamily=JetBrains Mono;fontSource=https%3A%2F%2Ffonts.googleapis.com%2Fcss%3Ffamily%3DJetBrains%2BMono;rounded=1;swimlaneLine=1;" parent="S7DDol8Fuw8rWnjDtF2z-6" vertex="1">
          <mxGeometry y="40" width="240" height="30" as="geometry" />
        </mxCell>
        <mxCell id="S7DDol8Fuw8rWnjDtF2z-28" value="" style="edgeStyle=orthogonalEdgeStyle;rounded=0;orthogonalLoop=1;jettySize=auto;html=1;fillColor=#fff2cc;strokeColor=#d6b656;strokeWidth=2;" parent="1" source="S7DDol8Fuw8rWnjDtF2z-22" target="S7DDol8Fuw8rWnjDtF2z-9" edge="1">
          <mxGeometry relative="1" as="geometry" />
        </mxCell>
        <mxCell id="S7DDol8Fuw8rWnjDtF2z-22" value="&lt;div&gt;from ... import EqualInstructionWatermarker&lt;br&gt;from my_water import MyWatermarker&lt;br&gt;&lt;br&gt;&lt;/div&gt;&lt;div&gt;ws = WatermarkService(file.elf)&lt;/div&gt;&lt;div&gt;ws.encode(&quot;secret&quot;, EqualInstructionWatermarker())&lt;br&gt;&lt;br&gt;# using our own strategy:&lt;br&gt;ws.encode(&quot;secret&quot;, MyWatermarker())&lt;/div&gt;&lt;div&gt;&lt;br&gt;&lt;/div&gt;" style="shape=note;strokeWidth=2;fontSize=14;size=20;whiteSpace=wrap;html=1;fillColor=#fff2cc;strokeColor=#d6b656;fontColor=#666600;fontFamily=JetBrains Mono;fontSource=https%3A%2F%2Ffonts.googleapis.com%2Fcss%3Ffamily%3DJetBrains%2BMono;align=left;" parent="1" vertex="1">
          <mxGeometry x="950" y="780" width="451.75" height="160" as="geometry" />
        </mxCell>
        <mxCell id="S7DDol8Fuw8rWnjDtF2z-23" value="&lt;div&gt;Concrete Strategies&lt;/div&gt;" style="text;html=1;align=center;verticalAlign=middle;whiteSpace=wrap;rounded=0;fontFamily=JetBrains Mono;fontSource=https%3A%2F%2Ffonts.googleapis.com%2Fcss%3Ffamily%3DJetBrains%2BMono;fontStyle=1;fontSize=16;" parent="1" vertex="1">
          <mxGeometry x="1550.02" y="818" width="250" height="30" as="geometry" />
        </mxCell>
        <mxCell id="S7DDol8Fuw8rWnjDtF2z-45" value="IO/Disassembly Layer" style="swimlane;whiteSpace=wrap;html=1;fontFamily=JetBrains Mono;fontSource=https%3A%2F%2Ffonts.googleapis.com%2Fcss%3Ffamily%3DJetBrains%2BMono;rounded=1;arcSize=15;strokeWidth=1;swimlaneFillColor=none;fillColor=#e1d5e7;strokeColor=#9673a6;" parent="1" vertex="1">
          <mxGeometry x="210" y="599.5" width="640" height="340.5" as="geometry" />
        </mxCell>
        <mxCell id="S7DDol8Fuw8rWnjDtF2z-33" value="&lt;span style=&quot;color: rgb(0, 153, 0);&quot;&gt;&amp;lt;&amp;lt;DataClass&amp;gt;&amp;gt;&lt;/span&gt;&lt;div&gt;TextSection&lt;/div&gt;" style="swimlane;fontStyle=1;align=center;verticalAlign=top;childLayout=stackLayout;horizontal=1;startSize=40;horizontalStack=0;resizeParent=1;resizeParentMax=0;resizeLast=0;collapsible=1;marginBottom=0;whiteSpace=wrap;html=1;fontFamily=JetBrains Mono;fontSource=https%3A%2F%2Ffonts.googleapis.com%2Fcss%3Ffamily%3DJetBrains%2BMono;rounded=1;fillColor=#F2F2F2;swimlaneFillColor=#F2F2F2;swimlaneLine=1;strokeColor=#7B8691;" parent="S7DDol8Fuw8rWnjDtF2z-45" vertex="1">
          <mxGeometry x="186.26" y="161.5" width="180" height="170" as="geometry">
            <mxRectangle x="1560" y="2160" width="110" height="30" as="alternateBounds" />
          </mxGeometry>
        </mxCell>
        <mxCell id="S7DDol8Fuw8rWnjDtF2z-34" value="&lt;div style=&quot;line-height: 140%;&quot;&gt;&lt;div align=&quot;left&quot;&gt;data: bytes&lt;br&gt;insns: List[CsInsn]&lt;br&gt;vma: int&lt;br&gt;offset: int&lt;br&gt;size: int&lt;br&gt;arch: &lt;b&gt;Architecture&lt;/b&gt;&lt;br&gt;src_path:&amp;nbsp; str&lt;/div&gt;&lt;/div&gt;" style="text;strokeColor=none;fillColor=none;align=left;verticalAlign=middle;spacingLeft=3;spacingRight=4;overflow=hidden;rotatable=0;points=[[0,0.5],[1,0.5]];portConstraint=eastwest;whiteSpace=wrap;html=1;fontFamily=JetBrains Mono;fontSource=https%3A%2F%2Ffonts.googleapis.com%2Fcss%3Ffamily%3DJetBrains%2BMono;rounded=1;swimlaneLine=1;labelPosition=center;verticalLabelPosition=middle;spacingBottom=-3;spacingTop=-12;" parent="S7DDol8Fuw8rWnjDtF2z-33" vertex="1">
          <mxGeometry y="40" width="180" height="130" as="geometry" />
        </mxCell>
        <mxCell id="S7DDol8Fuw8rWnjDtF2z-40" value="&lt;span style=&quot;color: rgb(0, 153, 0);&quot;&gt;&amp;lt;&amp;lt;Class&amp;gt;&amp;gt;&lt;/span&gt;&lt;div&gt;SectionHandler&lt;/div&gt;" style="swimlane;fontStyle=1;align=center;verticalAlign=top;childLayout=stackLayout;horizontal=1;startSize=40;horizontalStack=0;resizeParent=1;resizeParentMax=0;resizeLast=0;collapsible=1;marginBottom=0;whiteSpace=wrap;html=1;fontFamily=JetBrains Mono;fontSource=https%3A%2F%2Ffonts.googleapis.com%2Fcss%3Ffamily%3DJetBrains%2BMono;rounded=1;fillColor=#F2F2F2;swimlaneFillColor=#F2F2F2;swimlaneLine=1;strokeColor=#7B8691;" parent="S7DDol8Fuw8rWnjDtF2z-45" vertex="1">
          <mxGeometry x="46.75999999999999" y="50.5" width="459" height="100" as="geometry">
            <mxRectangle x="530" y="920" width="110" height="30" as="alternateBounds" />
          </mxGeometry>
        </mxCell>
        <mxCell id="S7DDol8Fuw8rWnjDtF2z-41" value="&lt;span style=&quot;font-size:125%;line-height:1em&quot;&gt;&lt;span style=&quot;color: rgb(0, 204, 0);&quot;&gt;⦿&lt;/span&gt;&lt;/span&gt; load(path: str) -&amp;gt; TextSection" style="text;strokeColor=none;fillColor=none;align=left;verticalAlign=top;spacingLeft=4;spacingRight=4;overflow=hidden;rotatable=0;points=[[0,0.5],[1,0.5]];portConstraint=eastwest;whiteSpace=wrap;html=1;fontFamily=JetBrains Mono;fontSource=https%3A%2F%2Ffonts.googleapis.com%2Fcss%3Ffamily%3DJetBrains%2BMono;rounded=1;swimlaneLine=1;" parent="S7DDol8Fuw8rWnjDtF2z-40" vertex="1">
          <mxGeometry y="40" width="459" height="30" as="geometry" />
        </mxCell>
        <mxCell id="S7DDol8Fuw8rWnjDtF2z-42" value="&lt;span style=&quot;font-size:125%;line-height:1em&quot;&gt;&lt;span style=&quot;color: rgb(0, 204, 0);&quot;&gt;⦿&lt;/span&gt;&lt;/span&gt; write(section: TextSection, dst_path: str, new_data: bytes)" style="text;strokeColor=none;fillColor=none;align=left;verticalAlign=top;spacingLeft=4;spacingRight=4;overflow=hidden;rotatable=0;points=[[0,0.5],[1,0.5]];portConstraint=eastwest;whiteSpace=wrap;html=1;fontFamily=JetBrains Mono;fontSource=https%3A%2F%2Ffonts.googleapis.com%2Fcss%3Ffamily%3DJetBrains%2BMono;rounded=1;swimlaneLine=1;" parent="S7DDol8Fuw8rWnjDtF2z-40" vertex="1">
          <mxGeometry y="70" width="459" height="30" as="geometry" />
        </mxCell>
        <mxCell id="S7DDol8Fuw8rWnjDtF2z-44" value="" style="edgeStyle=orthogonalEdgeStyle;rounded=0;orthogonalLoop=1;jettySize=auto;html=1;dashed=1;strokeWidth=2;" parent="S7DDol8Fuw8rWnjDtF2z-45" source="S7DDol8Fuw8rWnjDtF2z-41" target="S7DDol8Fuw8rWnjDtF2z-33" edge="1">
          <mxGeometry relative="1" as="geometry">
            <Array as="points">
              <mxPoint x="26.75999999999999" y="105.5" />
              <mxPoint x="26.75999999999999" y="246.5" />
            </Array>
          </mxGeometry>
        </mxCell>
        <mxCell id="tbiwmp9lunx3XJ8VPugq-154" value="ELFFile&lt;br&gt;(pyelftools)" style="shape=cylinder;whiteSpace=wrap;html=1;boundedLbl=1;backgroundOutline=1;fontFamily=JetBrains Mono;fontSource=https%3A%2F%2Ffonts.googleapis.com%2Fcss%3Ffamily%3DJetBrains%2BMono;fontStyle=1;fontColor=default;" parent="S7DDol8Fuw8rWnjDtF2z-45" vertex="1">
          <mxGeometry x="530" y="252.5" width="100" height="60" as="geometry" />
        </mxCell>
        <mxCell id="b0s_4tn9fbrKWreqpeW8-5" style="edgeStyle=orthogonalEdgeStyle;rounded=0;orthogonalLoop=1;jettySize=auto;html=1;" parent="S7DDol8Fuw8rWnjDtF2z-45" source="S7DDol8Fuw8rWnjDtF2z-41" target="tbiwmp9lunx3XJ8VPugq-154" edge="1">
          <mxGeometry relative="1" as="geometry" />
        </mxCell>
        <mxCell id="tbiwmp9lunx3XJ8VPugq-158" value="Cs&lt;br&gt;(capstone)" style="shape=cylinder;whiteSpace=wrap;html=1;boundedLbl=1;backgroundOutline=1;fontFamily=JetBrains Mono;fontSource=https%3A%2F%2Ffonts.googleapis.com%2Fcss%3Ffamily%3DJetBrains%2BMono;fontStyle=1" parent="S7DDol8Fuw8rWnjDtF2z-45" vertex="1">
          <mxGeometry x="420" y="252.5" width="100" height="60" as="geometry" />
        </mxCell>
        <mxCell id="b0s_4tn9fbrKWreqpeW8-24" style="edgeStyle=orthogonalEdgeStyle;rounded=0;orthogonalLoop=1;jettySize=auto;html=1;" parent="S7DDol8Fuw8rWnjDtF2z-45" source="S7DDol8Fuw8rWnjDtF2z-41" target="tbiwmp9lunx3XJ8VPugq-158" edge="1">
          <mxGeometry relative="1" as="geometry" />
        </mxCell>
        <mxCell id="S7DDol8Fuw8rWnjDtF2z-49" value="&lt;span style=&quot;color: rgb(0, 127, 255);&quot;&gt;&amp;lt;&amp;lt;Enum&amp;gt;&amp;gt;&lt;/span&gt;&lt;div&gt;Architecture&lt;/div&gt;" style="swimlane;fontStyle=1;align=center;verticalAlign=top;childLayout=stackLayout;horizontal=1;startSize=40;horizontalStack=0;resizeParent=1;resizeParentMax=0;resizeLast=0;collapsible=1;marginBottom=0;whiteSpace=wrap;html=1;fontFamily=JetBrains Mono;fontSource=https%3A%2F%2Ffonts.googleapis.com%2Fcss%3Ffamily%3DJetBrains%2BMono;rounded=1;fillColor=#F2F2F2;swimlaneFillColor=#F2F2F2;swimlaneLine=1;strokeColor=#7B8691;" parent="1" vertex="1">
          <mxGeometry x="210" y="322" width="497.49" height="220" as="geometry">
            <mxRectangle x="530" y="920" width="110" height="30" as="alternateBounds" />
          </mxGeometry>
        </mxCell>
        <mxCell id="S7DDol8Fuw8rWnjDtF2z-54" value="-&amp;gt; name: str" style="text;strokeColor=none;fillColor=none;align=left;verticalAlign=top;spacingLeft=4;spacingRight=4;overflow=hidden;rotatable=0;points=[[0,0.5],[1,0.5]];portConstraint=eastwest;whiteSpace=wrap;html=1;fontFamily=JetBrains Mono;fontSource=https%3A%2F%2Ffonts.googleapis.com%2Fcss%3Ffamily%3DJetBrains%2BMono;rounded=1;swimlaneLine=1;" parent="S7DDol8Fuw8rWnjDtF2z-49" vertex="1">
          <mxGeometry y="40" width="497.49" height="30" as="geometry" />
        </mxCell>
        <mxCell id="S7DDol8Fuw8rWnjDtF2z-50" value="-&amp;gt; capstone_arch: int" style="text;strokeColor=none;fillColor=none;align=left;verticalAlign=top;spacingLeft=4;spacingRight=4;overflow=hidden;rotatable=0;points=[[0,0.5],[1,0.5]];portConstraint=eastwest;whiteSpace=wrap;html=1;fontFamily=JetBrains Mono;fontSource=https%3A%2F%2Ffonts.googleapis.com%2Fcss%3Ffamily%3DJetBrains%2BMono;rounded=1;swimlaneLine=1;" parent="S7DDol8Fuw8rWnjDtF2z-49" vertex="1">
          <mxGeometry y="70" width="497.49" height="30" as="geometry" />
        </mxCell>
        <mxCell id="S7DDol8Fuw8rWnjDtF2z-51" value="-&amp;gt; capstone_mode: int" style="text;strokeColor=none;fillColor=none;align=left;verticalAlign=top;spacingLeft=4;spacingRight=4;overflow=hidden;rotatable=0;points=[[0,0.5],[1,0.5]];portConstraint=eastwest;whiteSpace=wrap;html=1;fontFamily=JetBrains Mono;fontSource=https%3A%2F%2Ffonts.googleapis.com%2Fcss%3Ffamily%3DJetBrains%2BMono;rounded=1;swimlaneLine=1;" parent="S7DDol8Fuw8rWnjDtF2z-49" vertex="1">
          <mxGeometry y="100" width="497.49" height="30" as="geometry" />
        </mxCell>
        <mxCell id="S7DDol8Fuw8rWnjDtF2z-55" value="-&amp;gt; e_machine: str" style="text;strokeColor=none;fillColor=none;align=left;verticalAlign=top;spacingLeft=4;spacingRight=4;overflow=hidden;rotatable=0;points=[[0,0.5],[1,0.5]];portConstraint=eastwest;whiteSpace=wrap;html=1;fontFamily=JetBrains Mono;fontSource=https%3A%2F%2Ffonts.googleapis.com%2Fcss%3Ffamily%3DJetBrains%2BMono;rounded=1;swimlaneLine=1;" parent="S7DDol8Fuw8rWnjDtF2z-49" vertex="1">
          <mxGeometry y="130" width="497.49" height="30" as="geometry" />
        </mxCell>
        <mxCell id="S7DDol8Fuw8rWnjDtF2z-56" value="-&amp;gt; elf_class: Optional[int]" style="text;strokeColor=none;fillColor=none;align=left;verticalAlign=top;spacingLeft=4;spacingRight=4;overflow=hidden;rotatable=0;points=[[0,0.5],[1,0.5]];portConstraint=eastwest;whiteSpace=wrap;html=1;fontFamily=JetBrains Mono;fontSource=https%3A%2F%2Ffonts.googleapis.com%2Fcss%3Ffamily%3DJetBrains%2BMono;rounded=1;swimlaneLine=1;" parent="S7DDol8Fuw8rWnjDtF2z-49" vertex="1">
          <mxGeometry y="160" width="497.49" height="30" as="geometry" />
        </mxCell>
        <mxCell id="S7DDol8Fuw8rWnjDtF2z-52" value="&lt;span style=&quot;font-size:125%;line-height:1em&quot;&gt;&lt;span style=&quot;color: rgb(0, 204, 0);&quot;&gt;⦿ &lt;/span&gt;&lt;/span&gt;from_elf(cls, e_machine: int, elf_class: int) -&amp;gt; &quot;Architecture&quot;" style="text;strokeColor=none;fillColor=none;align=left;verticalAlign=top;spacingLeft=4;spacingRight=4;overflow=hidden;rotatable=0;points=[[0,0.5],[1,0.5]];portConstraint=eastwest;whiteSpace=wrap;html=1;fontFamily=JetBrains Mono;fontSource=https%3A%2F%2Ffonts.googleapis.com%2Fcss%3Ffamily%3DJetBrains%2BMono;rounded=1;swimlaneLine=1;" parent="S7DDol8Fuw8rWnjDtF2z-49" vertex="1">
          <mxGeometry y="190" width="497.49" height="30" as="geometry" />
        </mxCell>
        <mxCell id="b0s_4tn9fbrKWreqpeW8-29" style="edgeStyle=orthogonalEdgeStyle;rounded=0;orthogonalLoop=1;jettySize=auto;html=1;strokeWidth=2;" parent="1" source="b0s_4tn9fbrKWreqpeW8-6" target="S7DDol8Fuw8rWnjDtF2z-9" edge="1">
          <mxGeometry relative="1" as="geometry" />
        </mxCell>
        <mxCell id="b0s_4tn9fbrKWreqpeW8-6" value="CLI Layer" style="swimlane;whiteSpace=wrap;html=1;fontFamily=JetBrains Mono;fontSource=https%3A%2F%2Ffonts.googleapis.com%2Fcss%3Ffamily%3DJetBrains%2BMono;rounded=1;arcSize=15;strokeWidth=1;swimlaneFillColor=none;fillColor=#dae8fc;strokeColor=#6c8ebf;" parent="1" vertex="1">
          <mxGeometry x="880.87" y="160" width="590" height="150" as="geometry" />
        </mxCell>
        <mxCell id="b0s_4tn9fbrKWreqpeW8-13" value="&lt;span style=&quot;color: rgb(0, 127, 255);&quot;&gt;&amp;lt;&amp;lt;Source&amp;gt;&amp;gt;&lt;/span&gt;&lt;div&gt;main.py&lt;/div&gt;" style="swimlane;fontStyle=1;align=center;verticalAlign=top;childLayout=stackLayout;horizontal=1;startSize=40;horizontalStack=0;resizeParent=1;resizeParentMax=0;resizeLast=0;collapsible=1;marginBottom=0;whiteSpace=wrap;html=1;fontFamily=JetBrains Mono;fontSource=https%3A%2F%2Ffonts.googleapis.com%2Fcss%3Ffamily%3DJetBrains%2BMono;rounded=1;fillColor=#F2F2F2;swimlaneFillColor=#F2F2F2;swimlaneLine=1;strokeColor=#7B8691;" parent="b0s_4tn9fbrKWreqpeW8-6" vertex="1">
          <mxGeometry x="319.13" y="50" width="240" height="70" as="geometry">
            <mxRectangle x="530" y="920" width="110" height="30" as="alternateBounds" />
          </mxGeometry>
        </mxCell>
        <mxCell id="b0s_4tn9fbrKWreqpeW8-14" value="&lt;div align=&quot;center&quot;&gt;&lt;span style=&quot;font-size:125%;line-height:1em&quot;&gt;&lt;span style=&quot;color: rgb(0, 204, 0);&quot;&gt;⦿&lt;/span&gt;&lt;/span&gt; main()&lt;/div&gt;" style="text;strokeColor=none;fillColor=none;align=center;verticalAlign=top;spacingLeft=4;spacingRight=4;overflow=hidden;rotatable=0;points=[[0,0.5],[1,0.5]];portConstraint=eastwest;whiteSpace=wrap;html=1;fontFamily=JetBrains Mono;fontSource=https%3A%2F%2Ffonts.googleapis.com%2Fcss%3Ffamily%3DJetBrains%2BMono;rounded=1;swimlaneLine=1;" parent="b0s_4tn9fbrKWreqpeW8-13" vertex="1">
          <mxGeometry y="40" width="240" height="30" as="geometry" />
        </mxCell>
        <mxCell id="b0s_4tn9fbrKWreqpeW8-15" value="&lt;span style=&quot;color: rgb(0, 127, 255);&quot;&gt;&amp;lt;&amp;lt;Source&amp;gt;&amp;gt;&lt;/span&gt;&lt;div&gt;parser.py&lt;/div&gt;" style="swimlane;fontStyle=1;align=center;verticalAlign=top;childLayout=stackLayout;horizontal=1;startSize=40;horizontalStack=0;resizeParent=1;resizeParentMax=0;resizeLast=0;collapsible=1;marginBottom=0;whiteSpace=wrap;html=1;fontFamily=JetBrains Mono;fontSource=https%3A%2F%2Ffonts.googleapis.com%2Fcss%3Ffamily%3DJetBrains%2BMono;rounded=1;fillColor=#F2F2F2;swimlaneFillColor=#F2F2F2;swimlaneLine=1;strokeColor=#7B8691;" parent="b0s_4tn9fbrKWreqpeW8-6" vertex="1">
          <mxGeometry x="30" y="50" width="240" height="70" as="geometry">
            <mxRectangle x="530" y="920" width="110" height="30" as="alternateBounds" />
          </mxGeometry>
        </mxCell>
        <mxCell id="b0s_4tn9fbrKWreqpeW8-16" value="WIP" style="text;strokeColor=none;fillColor=none;align=center;verticalAlign=top;spacingLeft=4;spacingRight=4;overflow=hidden;rotatable=0;points=[[0,0.5],[1,0.5]];portConstraint=eastwest;whiteSpace=wrap;html=1;fontFamily=JetBrains Mono;fontSource=https%3A%2F%2Ffonts.googleapis.com%2Fcss%3Ffamily%3DJetBrains%2BMono;rounded=1;swimlaneLine=1;" parent="b0s_4tn9fbrKWreqpeW8-15" vertex="1">
          <mxGeometry y="40" width="240" height="30" as="geometry" />
        </mxCell>
        <mxCell id="b0s_4tn9fbrKWreqpeW8-18" style="edgeStyle=orthogonalEdgeStyle;rounded=0;orthogonalLoop=1;jettySize=auto;html=1;" parent="b0s_4tn9fbrKWreqpeW8-6" source="b0s_4tn9fbrKWreqpeW8-13" target="b0s_4tn9fbrKWreqpeW8-15" edge="1">
          <mxGeometry relative="1" as="geometry">
            <Array as="points">
              <mxPoint x="299" y="80" />
              <mxPoint x="299" y="80" />
            </Array>
          </mxGeometry>
        </mxCell>
        <mxCell id="b0s_4tn9fbrKWreqpeW8-25" style="edgeStyle=orthogonalEdgeStyle;rounded=0;orthogonalLoop=1;jettySize=auto;html=1;dashed=1;strokeWidth=2;" parent="1" source="S7DDol8Fuw8rWnjDtF2z-40" target="S7DDol8Fuw8rWnjDtF2z-49" edge="1">
          <mxGeometry relative="1" as="geometry">
            <Array as="points">
              <mxPoint x="320" y="642" />
              <mxPoint x="320" y="642" />
            </Array>
          </mxGeometry>
        </mxCell>
        <mxCell id="b0s_4tn9fbrKWreqpeW8-26" value="&lt;font data-font-src=&quot;https://fonts.googleapis.com/css?family=JetBrains+Mono&quot; face=&quot;JetBrains Mono&quot;&gt;uses for disassembly configuration&lt;/font&gt;" style="edgeLabel;html=1;align=center;verticalAlign=middle;resizable=0;points=[];" parent="b0s_4tn9fbrKWreqpeW8-25" connectable="0" vertex="1">
          <mxGeometry x="0.0981" y="-2" relative="1" as="geometry">
            <mxPoint y="-10" as="offset" />
          </mxGeometry>
        </mxCell>
        <mxCell id="b0s_4tn9fbrKWreqpeW8-27" style="edgeStyle=orthogonalEdgeStyle;rounded=1;orthogonalLoop=1;jettySize=auto;html=1;curved=0;entryX=1;entryY=0.25;entryDx=0;entryDy=0;strokeWidth=2;" parent="1" source="S7DDol8Fuw8rWnjDtF2z-10" target="S7DDol8Fuw8rWnjDtF2z-40" edge="1">
          <mxGeometry relative="1" as="geometry">
            <Array as="points">
              <mxPoint x="870" y="553" />
              <mxPoint x="870" y="675" />
            </Array>
          </mxGeometry>
        </mxCell>
        <mxCell id="b0s_4tn9fbrKWreqpeW8-28" style="edgeStyle=orthogonalEdgeStyle;rounded=1;orthogonalLoop=1;jettySize=auto;html=1;curved=0;entryX=1;entryY=0.25;entryDx=0;entryDy=0;strokeWidth=2;" parent="1" source="b0s_4tn9fbrKWreqpeW8-2" target="S7DDol8Fuw8rWnjDtF2z-40" edge="1">
          <mxGeometry relative="1" as="geometry">
            <Array as="points">
              <mxPoint x="870" y="613" />
              <mxPoint x="870" y="675" />
            </Array>
          </mxGeometry>
        </mxCell>
        <mxCell id="SVhrLZn_o8enAOk96wSL-1" value="&lt;div&gt;Watermarkers Strategies Layer&lt;/div&gt;" style="swimlane;whiteSpace=wrap;html=1;fontFamily=JetBrains Mono;fontSource=https%3A%2F%2Ffonts.googleapis.com%2Fcss%3Ffamily%3DJetBrains%2BMono;rounded=1;arcSize=15;strokeWidth=1;swimlaneFillColor=none;fillColor=#ffe6cc;strokeColor=#d79b00;" vertex="1" parent="1">
          <mxGeometry x="1460" y="400" width="800" height="460" as="geometry" />
        </mxCell>
        <mxCell id="S7DDol8Fuw8rWnjDtF2z-1" value="&lt;span style=&quot;color: rgb(153, 51, 255);&quot;&gt;&amp;lt;&amp;lt;Interface&amp;gt;&amp;gt;&lt;/span&gt;&lt;div&gt;Watermarker&lt;/div&gt;" style="swimlane;fontStyle=1;align=center;verticalAlign=top;childLayout=stackLayout;horizontal=1;startSize=40;horizontalStack=0;resizeParent=1;resizeParentMax=0;resizeLast=0;collapsible=1;marginBottom=0;whiteSpace=wrap;html=1;fontFamily=JetBrains Mono;fontSource=https%3A%2F%2Ffonts.googleapis.com%2Fcss%3Ffamily%3DJetBrains%2BMono;rounded=1;fillColor=#F2F2F2;swimlaneFillColor=#F2F2F2;swimlaneLine=1;strokeColor=#7B8691;" parent="SVhrLZn_o8enAOk96wSL-1" vertex="1">
          <mxGeometry x="20.019999999999982" y="40" width="390" height="190" as="geometry">
            <mxRectangle x="530" y="920" width="110" height="30" as="alternateBounds" />
          </mxGeometry>
        </mxCell>
        <mxCell id="S7DDol8Fuw8rWnjDtF2z-26" value="-&amp;gt; &lt;b&gt;METHOD_NAME&lt;/b&gt;: str" style="text;strokeColor=none;fillColor=none;align=left;verticalAlign=top;spacingLeft=4;spacingRight=4;overflow=hidden;rotatable=0;points=[[0,0.5],[1,0.5]];portConstraint=eastwest;whiteSpace=wrap;html=1;fontFamily=JetBrains Mono;fontSource=https%3A%2F%2Ffonts.googleapis.com%2Fcss%3Ffamily%3DJetBrains%2BMono;rounded=1;swimlaneLine=1;" parent="S7DDol8Fuw8rWnjDtF2z-1" vertex="1">
          <mxGeometry y="40" width="390" height="30" as="geometry" />
        </mxCell>
        <mxCell id="S7DDol8Fuw8rWnjDtF2z-25" value="-&amp;gt; &lt;b&gt;SUPPORTED_ARCHS&lt;/b&gt;: Set[Architecture]" style="text;strokeColor=none;fillColor=none;align=left;verticalAlign=top;spacingLeft=4;spacingRight=4;overflow=hidden;rotatable=0;points=[[0,0.5],[1,0.5]];portConstraint=eastwest;whiteSpace=wrap;html=1;fontFamily=JetBrains Mono;fontSource=https%3A%2F%2Ffonts.googleapis.com%2Fcss%3Ffamily%3DJetBrains%2BMono;rounded=1;swimlaneLine=1;" parent="S7DDol8Fuw8rWnjDtF2z-1" vertex="1">
          <mxGeometry y="70" width="390" height="30" as="geometry" />
        </mxCell>
        <mxCell id="S7DDol8Fuw8rWnjDtF2z-2" value="&lt;span style=&quot;font-size:125%;line-height:1em&quot;&gt;&lt;span style=&quot;color: rgb(0, 204, 0);&quot;&gt;⦿&lt;/span&gt;&lt;/span&gt; encode(&lt;span style=&quot;white-space: pre-wrap&quot;&gt;txt: TextSection, message: bytes&lt;/span&gt;) -&amp;gt; bytes" style="text;strokeColor=none;fillColor=none;align=left;verticalAlign=top;spacingLeft=4;spacingRight=4;overflow=hidden;rotatable=0;points=[[0,0.5],[1,0.5]];portConstraint=eastwest;whiteSpace=wrap;html=1;fontFamily=JetBrains Mono;fontSource=https%3A%2F%2Ffonts.googleapis.com%2Fcss%3Ffamily%3DJetBrains%2BMono;rounded=1;swimlaneLine=1;" parent="S7DDol8Fuw8rWnjDtF2z-1" vertex="1">
          <mxGeometry y="100" width="390" height="30" as="geometry" />
        </mxCell>
        <mxCell id="S7DDol8Fuw8rWnjDtF2z-3" value="&lt;span style=&quot;font-size:125%;line-height:1em&quot;&gt;&lt;span style=&quot;color: rgb(0, 204, 0);&quot;&gt;⦿&lt;/span&gt;&lt;/span&gt; decode(&lt;span style=&quot;white-space: pre-wrap&quot;&gt;txt: TextSection&lt;/span&gt;) -&amp;gt; bytes" style="text;strokeColor=none;fillColor=none;align=left;verticalAlign=top;spacingLeft=4;spacingRight=4;overflow=hidden;rotatable=0;points=[[0,0.5],[1,0.5]];portConstraint=eastwest;whiteSpace=wrap;html=1;fontFamily=JetBrains Mono;fontSource=https%3A%2F%2Ffonts.googleapis.com%2Fcss%3Ffamily%3DJetBrains%2BMono;rounded=1;swimlaneLine=1;" parent="S7DDol8Fuw8rWnjDtF2z-1" vertex="1">
          <mxGeometry y="130" width="390" height="30" as="geometry" />
        </mxCell>
        <mxCell id="S7DDol8Fuw8rWnjDtF2z-4" value="&lt;span style=&quot;font-size:125%;line-height:1em&quot;&gt;&lt;span style=&quot;color: rgb(0, 204, 0);&quot;&gt;⦿&lt;/span&gt;&lt;/span&gt; get_nbits(&lt;span style=&quot;white-space: pre-wrap&quot;&gt;txt: TextSection&lt;/span&gt;) -&amp;gt; int:" style="text;strokeColor=none;fillColor=none;align=left;verticalAlign=top;spacingLeft=4;spacingRight=4;overflow=hidden;rotatable=0;points=[[0,0.5],[1,0.5]];portConstraint=eastwest;whiteSpace=wrap;html=1;fontFamily=JetBrains Mono;fontSource=https%3A%2F%2Ffonts.googleapis.com%2Fcss%3Ffamily%3DJetBrains%2BMono;rounded=1;swimlaneLine=1;" parent="S7DDol8Fuw8rWnjDtF2z-1" vertex="1">
          <mxGeometry y="160" width="390" height="30" as="geometry" />
        </mxCell>
        <mxCell id="SVhrLZn_o8enAOk96wSL-12" value="&lt;span style=&quot;color: rgb(0, 127, 255);&quot;&gt;&amp;lt;&amp;lt;Source&amp;gt;&amp;gt;&lt;/span&gt;&lt;div&gt;__init__.py&lt;/div&gt;" style="swimlane;fontStyle=1;align=center;verticalAlign=top;childLayout=stackLayout;horizontal=1;startSize=40;horizontalStack=0;resizeParent=1;resizeParentMax=0;resizeLast=0;collapsible=1;marginBottom=0;whiteSpace=wrap;html=1;fontFamily=JetBrains Mono;fontSource=https%3A%2F%2Ffonts.googleapis.com%2Fcss%3Ffamily%3DJetBrains%2BMono;rounded=1;fillColor=#F2F2F2;swimlaneFillColor=#F2F2F2;swimlaneLine=1;strokeColor=#7B8691;" vertex="1" parent="SVhrLZn_o8enAOk96wSL-1">
          <mxGeometry x="430" y="40" width="350" height="130" as="geometry">
            <mxRectangle x="530" y="920" width="110" height="30" as="alternateBounds" />
          </mxGeometry>
        </mxCell>
        <mxCell id="SVhrLZn_o8enAOk96wSL-13" value="&lt;div align=&quot;left&quot;&gt;&lt;span style=&quot;font-size:125%;line-height:1em&quot;&gt;&lt;span style=&quot;color: rgb(0, 204, 0);&quot;&gt;⦿ &lt;/span&gt;&lt;/span&gt;get_watermarkers() -&amp;gt; dict[str, Watermarker]&lt;/div&gt;" style="text;strokeColor=none;fillColor=none;align=left;verticalAlign=top;spacingLeft=4;spacingRight=4;overflow=hidden;rotatable=0;points=[[0,0.5],[1,0.5]];portConstraint=eastwest;whiteSpace=wrap;html=1;fontFamily=JetBrains Mono;fontSource=https%3A%2F%2Ffonts.googleapis.com%2Fcss%3Ffamily%3DJetBrains%2BMono;rounded=1;swimlaneLine=1;" vertex="1" parent="SVhrLZn_o8enAOk96wSL-12">
          <mxGeometry y="40" width="350" height="30" as="geometry" />
        </mxCell>
        <mxCell id="SVhrLZn_o8enAOk96wSL-15" value="&lt;div align=&quot;left&quot;&gt;&lt;span style=&quot;font-size:125%;line-height:1em&quot;&gt;&lt;span style=&quot;color: rgb(0, 204, 0);&quot;&gt;⦿ &lt;/span&gt;&lt;/span&gt;get_strategy() -&amp;gt; &#39;Watermarker&#39;&lt;/div&gt;" style="text;strokeColor=none;fillColor=none;align=left;verticalAlign=top;spacingLeft=4;spacingRight=4;overflow=hidden;rotatable=0;points=[[0,0.5],[1,0.5]];portConstraint=eastwest;whiteSpace=wrap;html=1;fontFamily=JetBrains Mono;fontSource=https%3A%2F%2Ffonts.googleapis.com%2Fcss%3Ffamily%3DJetBrains%2BMono;rounded=1;swimlaneLine=1;" vertex="1" parent="SVhrLZn_o8enAOk96wSL-12">
          <mxGeometry y="70" width="350" height="30" as="geometry" />
        </mxCell>
        <mxCell id="SVhrLZn_o8enAOk96wSL-16" value="&lt;div align=&quot;left&quot;&gt;&lt;span style=&quot;font-size:125%;line-height:1em&quot;&gt;&lt;span style=&quot;color: rgb(0, 204, 0);&quot;&gt;⦿ &lt;/span&gt;&lt;/span&gt;get_available_strategies() -&amp;gt; List[str]&lt;/div&gt;" style="text;strokeColor=none;fillColor=none;align=left;verticalAlign=top;spacingLeft=4;spacingRight=4;overflow=hidden;rotatable=0;points=[[0,0.5],[1,0.5]];portConstraint=eastwest;whiteSpace=wrap;html=1;fontFamily=JetBrains Mono;fontSource=https%3A%2F%2Ffonts.googleapis.com%2Fcss%3Ffamily%3DJetBrains%2BMono;rounded=1;swimlaneLine=1;" vertex="1" parent="SVhrLZn_o8enAOk96wSL-12">
          <mxGeometry y="100" width="350" height="30" as="geometry" />
        </mxCell>
        <mxCell id="SVhrLZn_o8enAOk96wSL-17" style="edgeStyle=orthogonalEdgeStyle;rounded=0;orthogonalLoop=1;jettySize=auto;html=1;dashed=1;dashPattern=8 8;" edge="1" parent="1" source="b0s_4tn9fbrKWreqpeW8-14" target="SVhrLZn_o8enAOk96wSL-12">
          <mxGeometry relative="1" as="geometry" />
        </mxCell>
      </root>
    </mxGraphModel>
  </diagram>
</mxfile>
